<?xml version="1.0" encoding="utf-8"?>
<!-- Generator: Adobe Illustrator 22.1.0, SVG Export Plug-In . SVG Version: 6.00 Build 0)  -->
<svg version="1.1" id="Layer_1" xmlns="http://www.w3.org/2000/svg" xmlns:xlink="http://www.w3.org/1999/xlink" x="0px" y="0px"
	 viewBox="0 0 420.5 123.7" style="enable-background:new 0 0 420.5 123.7;" xml:space="preserve">
<style type="text/css">
	.st0{fill:#F9B734;}
</style>
<g>
	<path d="M130.2,99.4h-17V63.6h16.6c7.3,0,11.8,3.6,11.8,9.2V73c0,4-2.1,6.3-4.7,7.7c4.1,1.6,6.7,4,6.7,8.8v0.1
		C143.6,96.1,138.2,99.4,130.2,99.4z M133.8,74.2c0-2.4-1.8-3.7-5.2-3.7h-7.8v7.6h7.3c3.5,0,5.7-1.1,5.7-3.8V74.2z M135.7,88.5
		c0-2.4-1.8-3.9-5.8-3.9h-9.1v7.9h9.4c3.5,0,5.6-1.2,5.6-3.9V88.5z"/>
	<path d="M203.6,99.4l-3.3-8h-15.1l-3.3,8h-8l15.3-36h7.3l15.3,36H203.6z M192.8,72.8L188,84.4h9.5L192.8,72.8z"/>
	<path d="M229.7,100c-10.5,0-18.3-8.1-18.3-18.4v-0.1C211.3,71.4,219,63,230,63c6.7,0,10.8,2.2,14.1,5.5l-5,5.8
		c-2.8-2.5-5.6-4-9.1-4c-6,0-10.4,5-10.4,11.1v0.1c0,6.1,4.2,11.2,10.4,11.2c4.1,0,6.6-1.6,9.4-4.2l5,5.1
		C240.7,97.6,236.6,100,229.7,100z"/>
	<path d="M272.1,99.4L261,84.2l-4.1,4.3v10.9H249V63.6h7.9v15.6l14.5-15.6h9.5l-14.6,15.2l15.2,20.6H272.1z"/>
	<path d="M285.4,99.4V63.6h7.9v28.6h17.8v7.2H285.4z"/>
	<path d="M315.8,99.4V63.6h7.9v35.8H315.8z"/>
	<path d="M354.9,99.4l-17.3-22.7v22.7h-7.8V63.6h7.3l16.8,22v-22h7.8v35.8H354.9z"/>
	<path d="M367.8,99.4V63.6h27v7h-19.2v7.3h16.9v7h-16.9v7.5h19.4v7H367.8z"/>
	<polygon points="172.9,92.3 155.2,92.3 155.2,63.6 147.3,63.6 147.3,99.4 169.6,99.4 	"/>
	<g>
		<polygon points="97.4,61.2 98.3,56.7 96,56.7 96,44.2 97.4,44.2 98.3,39.6 96,39.6 96,28.5 35.1,28.5 35.1,101.6 96,101.6 
			96,81.3 97.4,81.3 98.3,76.8 96,76.8 96,61.2 		"/>
		<g>
			<path class="st0" d="M98.3,31.8L98.3,31.8v-5.7H37.4v22.3c6.9,5.9,13.4,12.2,19.5,18.9C69.2,54,83.1,42,98.3,31.8z"/>
			<polygon class="st0" points="56.9,79.1 56.9,79.1 56.9,79.1 			"/>
			<polygon class="st0" points="56.9,92.2 56.9,92.2 56.9,92.2 			"/>
			<polygon class="st0" points="76.4,92.1 76.4,92.1 76.4,92.1 			"/>
			<path class="st0" d="M98.3,66.3L98.3,66.3v-9.5l0,0c-9.7,8.6-18.7,18.2-26.7,28.7l0,0c1.6,2.2,3.2,4.4,4.8,6.7
				C83,82.8,90.4,74.2,98.3,66.3z"/>
			<path class="st0" d="M61.9,73.1L61.9,73.1c1.7,2,3.3,3.9,4.9,6l0,0c9.4-11.5,20-22,31.6-31.2v0v-8.3C85,49.4,72.7,60.6,61.9,73.1
				z"/>
			<path class="st0" d="M61.8,85.4c-1.6-2.1-3.2-4.3-4.9-6.3c-1.7,2.1-3.3,4.2-4.9,6.3l0,0c1.7,2.2,3.3,4.5,4.9,6.8
				C58.5,89.9,60.1,87.6,61.8,85.4L61.8,85.4z"/>
			<path class="st0" d="M66.6,92.2L66.6,92.2c-1.6,2.3-3.3,4.7-4.8,7.1l0,0h9.5l0,0C69.8,96.9,68.2,94.5,66.6,92.2z"/>
			<path class="st0" d="M47.1,92.2c-1.6,2.3-3.2,4.7-4.7,7.1h9.5l0,0C50.4,96.9,48.8,94.5,47.1,92.2z"/>
			<path class="st0" d="M81.1,99.3L81.1,99.3l17.2,0V76.8C92.1,83.8,86.3,91.3,81.1,99.3z"/>
			<polygon class="st0" points="47.1,92.2 47.1,92.2 47.1,92.2 			"/>
			<path class="st0" d="M37.4,92.1c1.5-2.3,3.1-4.5,4.7-6.7l0,0c-1.5-2-3.1-4-4.7-6V92.1z"/>
			<path class="st0" d="M47,79.1c1.6-2,3.2-4,4.9-6l0,0c-4.6-5.3-9.4-10.4-14.5-15.2v10.2C40.7,71.7,43.9,75.3,47,79.1L47,79.1z"/>
		</g>
	</g>
</g>
</svg>
